<svg width="196" height="65" viewBox="0 0 196 65" fill="none" xmlns="http://www.w3.org/2000/svg">
<g clip-path="url(#clip0_755_10428)">
<path d="M16.6719 10.4697H28.3906C29.0352 10.4697 29.5625 10.9971 29.5625 11.6416V13.0479C29.5625 13.6924 29.0352 14.2198 28.3906 14.2198H16.6719C16.0273 14.2197 15.5 13.6924 15.5 13.0478V11.6416C15.5 10.9971 16.0273 10.4697 16.6719 10.4697Z" fill="#A86A3F"/>
<path d="M19.2383 11.7232L26.5742 9.77794C26.8203 9.70763 27.0781 9.85997 27.1484 10.1061L28.3672 14.6061C28.4375 14.8522 28.2851 15.11 28.039 15.1803L18.4883 17.7232C18.2422 17.7935 17.9844 17.6412 17.9141 17.3951L17.0234 14.0904L19.2383 11.7232Z" fill="#5EBA6D"/>
<path d="M27.091 14.4653L25.509 14.8872C25.3801 14.9223 25.2512 14.852 25.2278 14.7231C25.1926 14.5942 25.2629 14.4653 25.3918 14.4419L26.7512 14.0786L26.0247 11.3598L24.6653 11.7231C24.5364 11.7583 24.4075 11.6879 24.3841 11.559C24.3489 11.4302 24.4192 11.3012 24.5481 11.2778L26.1301 10.8559C26.259 10.8208 26.388 10.8911 26.4114 11.02L27.2551 14.1841C27.2902 14.313 27.2199 14.4419 27.091 14.4653ZM20.5285 16.2348L18.9465 16.6567C18.8176 16.6919 18.6887 16.6215 18.6653 16.4926L17.8215 13.3286C17.7864 13.1997 17.8567 13.0708 17.9856 13.0473L19.5676 12.6255C19.6965 12.5903 19.8254 12.6607 19.8489 12.7896C19.884 12.9185 19.8137 13.0474 19.6848 13.0708L18.3254 13.4341L19.052 16.1528L20.4113 15.7895C20.5402 15.7544 20.6692 15.8247 20.6926 15.9536C20.7277 16.0708 20.6574 16.1997 20.5285 16.2348Z" fill="#B3F0BD"/>
<path d="M15.5938 13.3641C17.6797 12.1687 23.3047 8.87576 23.3047 8.87576C23.5274 8.74686 23.8203 8.81717 23.9493 9.03983L26.293 13.0711C26.4219 13.2937 26.3399 13.575 26.1172 13.7039L17.5391 18.6258C17.3164 18.7547 17.0235 18.6844 16.8945 18.4617C16.8945 18.4617 16.2383 17.1258 15.582 16.0007C15.5821 13.3641 15.5938 14.2312 15.5938 13.3641Z" fill="#5EBA6D"/>
<path d="M25.0966 12.9418L23.456 10.1059C23.3857 9.98872 23.2451 9.95355 23.1396 10.0239L21.7216 10.8442C21.6045 10.9145 21.5693 11.0551 21.6396 11.1606C21.7099 11.2778 21.8505 11.3129 21.956 11.2426L23.1748 10.5395L24.581 12.977L23.3623 13.6801C23.2451 13.7504 23.2099 13.891 23.2802 13.9965C23.3505 14.1137 23.4912 14.1489 23.5966 14.0786L25.0146 13.2583C25.1201 13.1997 25.1669 13.059 25.0966 12.9418ZM18.8857 16.2583L17.6669 16.9614L16.2607 14.5239L17.4794 13.8207C17.5966 13.7504 17.6318 13.6098 17.5615 13.5043C17.4911 13.3871 17.3505 13.352 17.245 13.4223L15.8271 14.2426C15.7099 14.3129 15.6747 14.4535 15.7451 14.559L17.3857 17.3949C17.456 17.5121 17.5966 17.5473 17.7021 17.477L19.12 16.6567C19.2372 16.5864 19.2724 16.4457 19.2021 16.3403C19.1435 16.2348 19.0029 16.1879 18.8857 16.2583ZM19.4833 12.1215C18.581 12.6372 18.2763 13.7856 18.7919 14.6879C19.3193 15.5903 20.456 15.895 21.3583 15.3793C22.2607 14.8637 22.5654 13.7153 22.0497 12.8129C21.5224 11.9223 20.3857 11.6059 19.4833 12.1215ZM25.0966 12.9418L23.456 10.1059C23.3857 9.98872 23.2451 9.95355 23.1396 10.0239L21.7216 10.8442C21.6045 10.9145 21.5693 11.0551 21.6396 11.1606C21.7099 11.2778 21.8505 11.3129 21.956 11.2426L23.1748 10.5395L24.581 12.977L23.3623 13.6801C23.2451 13.7504 23.2099 13.891 23.2802 13.9965C23.3505 14.1137 23.4912 14.1489 23.5966 14.0786L25.0146 13.2583C25.1201 13.1997 25.1669 13.059 25.0966 12.9418ZM18.8857 16.2583L17.6669 16.9614L16.2607 14.5239L17.4794 13.8207C17.5966 13.7504 17.6318 13.6098 17.5615 13.5043C17.4911 13.3871 17.3505 13.352 17.245 13.4223L15.8271 14.2426C15.7099 14.3129 15.6747 14.4535 15.7451 14.559L17.3857 17.3949C17.456 17.5121 17.5966 17.5473 17.7021 17.477L19.12 16.6567C19.2372 16.5864 19.2724 16.4457 19.2021 16.3403C19.1435 16.2348 19.0029 16.1879 18.8857 16.2583ZM19.4833 12.1215C18.581 12.6372 18.2763 13.7856 18.7919 14.6879C19.3193 15.5903 20.456 15.895 21.3583 15.3793C22.2607 14.8637 22.5654 13.7153 22.0497 12.8129C21.5224 11.9223 20.3857 11.6059 19.4833 12.1215Z" fill="#B3F0BD"/>
<path d="M28.8594 22.1885H16.6719C16.0273 22.1885 15.5 21.6611 15.5 21.0166V12.5791H28.8594C29.5039 12.5791 30.0313 13.1065 30.0313 13.751V21.0166C30.0312 21.6611 29.5039 22.1885 28.8594 22.1885ZM16.4375 12.5791H15.5V11.6416C15.5 12.1572 15.9219 12.5791 16.4375 12.5791Z" fill="#C47E4D"/>
<path d="M30.0312 19.2588H28.1562C27.2539 19.2588 26.5156 18.5205 26.5156 17.6182C26.5156 16.7158 27.2539 15.9775 28.1562 15.9775H30.0312C30.2891 15.9775 30.5 16.1885 30.5 16.4463V18.79C30.5 19.0478 30.2891 19.2588 30.0312 19.2588Z" fill="#A86A3F"/>
<path d="M28.1563 16.6807C28.6719 16.6807 29.0938 17.1025 29.0938 17.6182C29.0938 18.1338 28.6719 18.5557 28.1563 18.5557C27.6406 18.5557 27.2188 18.1338 27.2188 17.6182C27.2188 17.1025 27.6406 16.6807 28.1563 16.6807Z" fill="#EFC75E"/>
<path d="M28.3906 18.3213C27.875 18.3213 27.4531 17.8994 27.4531 17.3838C27.4531 17.1846 27.5117 16.9971 27.6172 16.8447C27.3711 17.0088 27.2188 17.29 27.2188 17.6182C27.2188 18.1338 27.6406 18.5557 28.1563 18.5557C28.4727 18.5557 28.7539 18.3916 28.9297 18.1572C28.7773 18.2627 28.5898 18.3213 28.3906 18.3213Z" fill="#D7B354"/>
<path d="M28.8594 21.7197H16.6719C16.0273 21.7197 15.5 21.1924 15.5 20.5479V21.0166C15.5 21.6611 16.0273 22.1885 16.6719 22.1885H28.8594C29.5039 22.1885 30.0313 21.6611 30.0313 21.0166V20.5479C30.0312 21.1924 29.5039 21.7197 28.8594 21.7197Z" fill="#B27245"/>
<path d="M28.8594 12.5791H16.4375C15.9219 12.5791 15.5 12.1572 15.5 11.6416V12.1104C15.5 12.626 15.9219 13.0479 16.4375 13.0479H28.8594C29.5039 13.0479 30.0313 13.5752 30.0313 14.2198V13.751C30.0312 13.1065 29.5039 12.5791 28.8594 12.5791Z" fill="#CA8B5F"/>
</g>
<rect x="1" y="0.5" width="44" height="29" rx="4.5" stroke="#E2E4EB"/>
<g clip-path="url(#clip1_755_10428)">
<path d="M70.6481 21.3246H67.8164L69.5876 10.0603H72.4191L70.6481 21.3246Z" fill="#00579F"/>
<path d="M80.9123 10.3355C80.3538 10.1076 79.4678 9.85596 78.3725 9.85596C75.5761 9.85596 73.6069 11.3897 73.5948 13.5826C73.5716 15.2005 75.0047 16.0991 76.0766 16.6385C77.1721 17.1898 77.5445 17.5495 77.5445 18.0409C77.5333 18.7956 76.6593 19.1434 75.844 19.1434C74.7134 19.1434 74.1077 18.964 73.1871 18.5442L72.8142 18.3642L72.418 20.8928C73.0822 21.204 74.3058 21.4802 75.5761 21.4923C78.5473 21.4923 80.4817 19.9823 80.5045 17.6454C80.5159 16.3632 79.7592 15.3806 78.1277 14.5777C77.1373 14.0623 76.5307 13.7148 76.5307 13.1874C76.5424 12.708 77.0437 12.217 78.1618 12.217C79.0823 12.1929 79.7587 12.4205 80.271 12.6483L80.5272 12.7679L80.9123 10.3355Z" fill="#00579F"/>
<path d="M84.676 17.334C84.9092 16.6869 85.8065 14.1824 85.8065 14.1824C85.7948 14.2065 86.0393 13.5233 86.1791 13.104L86.377 14.0746C86.377 14.0746 86.9132 16.7709 87.0297 17.334C86.5872 17.334 85.2353 17.334 84.676 17.334ZM88.1714 10.0603H85.9811C85.3056 10.0603 84.7925 10.2639 84.501 10.9949L80.2949 21.3245H83.2661C83.2661 21.3245 83.7553 19.9341 83.8604 19.6347C84.1864 19.6347 87.0768 19.6347 87.4961 19.6347C87.5774 20.0302 87.834 21.3245 87.834 21.3245H90.4558L88.1714 10.0603Z" fill="#00579F"/>
<path d="M65.4521 10.0603L62.679 17.7415L62.3759 16.1837C61.8632 14.3861 60.2553 12.4331 58.4609 11.4621L61.0011 21.3126H63.9955L68.4464 10.0603H65.4521Z" fill="#00579F"/>
<path d="M60.1025 10.0603H55.5466L55.5 10.2879C59.0539 11.2227 61.4076 13.4759 62.3746 16.1841L61.3842 11.0072C61.2211 10.2877 60.7201 10.084 60.1025 10.0603Z" fill="#FAA61A"/>
</g>
<rect x="51" y="0.5" width="44" height="29" rx="4.5" stroke="#E2E4EB"/>
<g clip-path="url(#clip2_755_10428)">
<path d="M132.112 22.7969V22.8359H132.147C132.155 22.8359 132.162 22.834 132.167 22.831C132.171 22.828 132.174 22.8226 132.174 22.8162C132.174 22.8097 132.171 22.8048 132.167 22.8018C132.162 22.7984 132.155 22.7969 132.147 22.7969H132.112ZM132.147 22.7696C132.166 22.7696 132.18 22.7737 132.19 22.7821C132.2 22.7904 132.205 22.8018 132.205 22.8162C132.205 22.8283 132.201 22.8382 132.193 22.8461C132.185 22.8537 132.174 22.8586 132.159 22.8605L132.206 22.9155H132.169L132.126 22.8609H132.112V22.9155H132.081V22.7696H132.147ZM132.138 22.9658C132.155 22.9658 132.171 22.9624 132.185 22.956C132.199 22.9496 132.212 22.9409 132.223 22.9298C132.234 22.9189 132.242 22.906 132.249 22.8908C132.255 22.8761 132.258 22.8601 132.258 22.8431C132.258 22.8261 132.255 22.8101 132.249 22.7954C132.242 22.7806 132.234 22.7673 132.223 22.7563C132.212 22.7453 132.199 22.7366 132.185 22.7302C132.171 22.7241 132.155 22.7211 132.138 22.7211C132.121 22.7211 132.105 22.7241 132.091 22.7302C132.076 22.7366 132.063 22.7453 132.052 22.7563C132.041 22.7673 132.032 22.7806 132.026 22.7954C132.02 22.8101 132.017 22.8261 132.017 22.8431C132.017 22.8601 132.02 22.8761 132.026 22.8908C132.032 22.906 132.041 22.9189 132.052 22.9298C132.063 22.9409 132.076 22.9496 132.091 22.956C132.105 22.9624 132.121 22.9658 132.138 22.9658ZM132.138 22.6859C132.16 22.6859 132.18 22.69 132.2 22.6983C132.219 22.7063 132.235 22.7176 132.25 22.7321C132.264 22.7461 132.275 22.7628 132.283 22.7821C132.292 22.801 132.296 22.8215 132.296 22.8431C132.296 22.8647 132.292 22.8851 132.283 22.9041C132.275 22.923 132.264 22.9397 132.25 22.9541C132.235 22.9681 132.219 22.9795 132.2 22.9878C132.18 22.9962 132.16 23.0003 132.138 23.0003C132.116 23.0003 132.095 22.9962 132.076 22.9878C132.056 22.9795 132.04 22.9681 132.025 22.9541C132.011 22.9397 132 22.923 131.992 22.9041C131.984 22.8851 131.979 22.8647 131.979 22.8431C131.979 22.8215 131.984 22.801 131.992 22.7821C132 22.7628 132.011 22.7461 132.025 22.7321C132.04 22.7176 132.056 22.7063 132.076 22.6983C132.095 22.69 132.116 22.6859 132.138 22.6859ZM117.589 22.1239C117.589 21.8457 117.769 21.6173 118.062 21.6173C118.343 21.6173 118.532 21.8359 118.532 22.1239C118.532 22.4119 118.343 22.6305 118.062 22.6305C117.769 22.6305 117.589 22.402 117.589 22.1239ZM118.852 22.1239V21.3327H118.513V21.5248C118.405 21.3824 118.242 21.2929 118.02 21.2929C117.583 21.2929 117.24 21.6408 117.24 22.1239C117.24 22.6074 117.583 22.9549 118.02 22.9549C118.242 22.9549 118.405 22.8655 118.513 22.723V22.9151H118.852V22.1239ZM130.31 22.1239C130.31 21.8457 130.489 21.6173 130.783 21.6173C131.064 21.6173 131.253 21.8359 131.253 22.1239C131.253 22.4119 131.064 22.6305 130.783 22.6305C130.489 22.6305 130.31 22.402 130.31 22.1239ZM131.573 22.1239V20.6973H131.233V21.5248C131.126 21.3824 130.963 21.2929 130.741 21.2929C130.303 21.2929 129.961 21.6408 129.961 22.1239C129.961 22.6074 130.303 22.9549 130.741 22.9549C130.963 22.9549 131.126 22.8655 131.233 22.723V22.9151H131.573V22.1239ZM123.06 21.601C123.279 21.601 123.419 21.7401 123.455 21.9848H122.646C122.682 21.7563 122.819 21.601 123.06 21.601ZM123.067 21.2929C122.61 21.2929 122.29 21.6306 122.29 22.1239C122.29 22.6271 122.623 22.9549 123.09 22.9549C123.325 22.9549 123.54 22.8954 123.729 22.7332L123.563 22.4782C123.432 22.5839 123.266 22.6438 123.109 22.6438C122.891 22.6438 122.692 22.5411 122.643 22.2561H123.801C123.804 22.2133 123.808 22.1702 123.808 22.1239C123.804 21.6306 123.504 21.2929 123.067 21.2929ZM127.161 22.1239C127.161 21.8457 127.341 21.6173 127.635 21.6173C127.915 21.6173 128.104 21.8359 128.104 22.1239C128.104 22.4119 127.915 22.6305 127.635 22.6305C127.341 22.6305 127.161 22.402 127.161 22.1239ZM128.424 22.1239V21.3327H128.085V21.5248C127.977 21.3824 127.814 21.2929 127.592 21.2929C127.155 21.2929 126.812 21.6408 126.812 22.1239C126.812 22.6074 127.155 22.9549 127.592 22.9549C127.814 22.9549 127.977 22.8655 128.085 22.723V22.9151H128.424V22.1239ZM125.247 22.1239C125.247 22.604 125.576 22.9549 126.079 22.9549C126.313 22.9549 126.47 22.9018 126.639 22.7662L126.477 22.488C126.349 22.5809 126.216 22.6305 126.068 22.6305C125.798 22.6271 125.599 22.4286 125.599 22.1239C125.599 21.8193 125.798 21.6207 126.068 21.6173C126.216 21.6173 126.349 21.6669 126.477 21.7597L126.639 21.4816C126.47 21.346 126.313 21.2929 126.079 21.2929C125.576 21.2929 125.247 21.6438 125.247 22.1239ZM129.618 21.2929C129.423 21.2929 129.295 21.3858 129.207 21.5248V21.3327H128.871V22.9151H129.21V22.0281C129.21 21.7662 129.321 21.6207 129.543 21.6207C129.612 21.6207 129.684 21.6306 129.755 21.6605L129.86 21.3361C129.785 21.3062 129.687 21.2929 129.618 21.2929ZM120.529 21.4585C120.365 21.3494 120.141 21.2929 119.893 21.2929C119.498 21.2929 119.243 21.4851 119.243 21.7995C119.243 22.0576 119.433 22.2167 119.781 22.2664L119.942 22.2895C120.128 22.316 120.215 22.3657 120.215 22.4551C120.215 22.5775 120.091 22.6472 119.86 22.6472C119.625 22.6472 119.455 22.571 119.341 22.4816L119.181 22.7495C119.367 22.8885 119.602 22.9549 119.856 22.9549C120.307 22.9549 120.568 22.7396 120.568 22.4384C120.568 22.1603 120.362 22.0148 120.023 21.9651L119.863 21.9416C119.716 21.922 119.599 21.8924 119.599 21.7863C119.599 21.6703 119.71 21.601 119.896 21.601C120.095 21.601 120.287 21.6772 120.382 21.7367L120.529 21.4585ZM124.904 21.2929C124.708 21.2929 124.581 21.3858 124.493 21.5248V21.3327H124.157V22.9151H124.496V22.0281C124.496 21.7662 124.607 21.6207 124.829 21.6207C124.897 21.6207 124.969 21.6306 125.041 21.6605L125.145 21.3361C125.07 21.3062 124.972 21.2929 124.904 21.2929ZM122.01 21.3327H121.456V20.8526H121.113V21.3327H120.796V21.6472H121.113V22.3691C121.113 22.7362 121.253 22.9549 121.654 22.9549C121.801 22.9549 121.971 22.9087 122.078 22.8325L121.981 22.5376C121.879 22.5972 121.768 22.6271 121.68 22.6271C121.511 22.6271 121.456 22.521 121.456 22.3623V21.6472H122.01V21.3327ZM116.94 22.9151V21.922C116.94 21.5479 116.705 21.2963 116.326 21.2929C116.127 21.2895 115.922 21.3524 115.778 21.5745C115.671 21.399 115.501 21.2929 115.263 21.2929C115.096 21.2929 114.934 21.3426 114.806 21.5279V21.3327H114.467V22.9151H114.809V22.0379C114.809 21.7632 114.959 21.6173 115.191 21.6173C115.416 21.6173 115.53 21.7662 115.53 22.0345V22.9151H115.873V22.0379C115.873 21.7632 116.03 21.6173 116.255 21.6173C116.486 21.6173 116.597 21.7662 116.597 22.0345V22.9151H116.94Z" fill="#9A9C9E"/>
<path d="M132.321 17.6523V17.4211H132.262L132.193 17.5799L132.125 17.4211H132.065V17.6523H132.107V17.478L132.171 17.6284H132.215L132.279 17.4776V17.6523H132.321ZM131.944 17.6523V17.4605H132.02V17.4215H131.826V17.4605H131.902V17.6523H131.944Z" fill="#F79410"/>
<path d="M125.569 18.6466H120.43V9.27515H125.569V18.6466Z" fill="#FF5F00"/>
<path d="M120.759 13.9601C120.759 12.0591 121.637 10.3657 123.003 9.27437C122.004 8.47637 120.743 8.00006 119.373 8.00006C116.129 8.00006 113.5 10.6684 113.5 13.9601C113.5 17.2518 116.129 19.9202 119.373 19.9202C120.743 19.9202 122.004 19.4439 123.003 18.6459C121.637 17.5546 120.759 15.8612 120.759 13.9601Z" fill="#EB001B"/>
<path d="M132.501 13.96C132.501 17.2517 129.872 19.9201 126.628 19.9201C125.258 19.9201 123.997 19.4438 122.998 18.6458C124.364 17.5545 125.242 15.8611 125.242 13.96C125.242 12.059 124.364 10.3656 122.998 9.27431C123.997 8.4763 125.258 8 126.628 8C129.872 8 132.501 10.6684 132.501 13.96Z" fill="#F79E1B"/>
</g>
<rect x="101" y="0.5" width="44" height="29" rx="4.5" stroke="#E2E4EB"/>
<g clip-path="url(#clip3_755_10428)">
<path d="M175.445 18.7712H170.412V9.68384H175.445V18.7712Z" fill="#6C6BBD"/>
<path d="M182.055 17.8071V17.583H181.997L181.929 17.737L181.862 17.583H181.804V17.8071H181.845V17.6382L181.908 17.784H181.951L182.014 17.6378V17.8071H182.055ZM181.686 17.8071V17.6213H181.76V17.5834H181.57V17.6213H181.645V17.8071H181.686Z" fill="#0099DF"/>
<path d="M179.54 22.7956V22.8335H179.574C179.582 22.8335 179.589 22.8316 179.593 22.8287C179.598 22.8258 179.6 22.8206 179.6 22.8144C179.6 22.8082 179.598 22.8034 179.593 22.8004C179.589 22.7971 179.582 22.7956 179.574 22.7956H179.54ZM179.575 22.7692C179.593 22.7692 179.607 22.7733 179.616 22.7813C179.626 22.7894 179.631 22.8004 179.631 22.8144C179.631 22.8262 179.627 22.8357 179.619 22.8434C179.612 22.8507 179.6 22.8555 179.586 22.8574L179.632 22.9106H179.596L179.554 22.8577H179.54V22.9106H179.51V22.7692H179.575ZM179.566 22.9591C179.582 22.9591 179.597 22.9562 179.611 22.95C179.626 22.9437 179.638 22.9353 179.649 22.9246C179.659 22.914 179.668 22.9014 179.674 22.8867C179.68 22.8724 179.683 22.857 179.683 22.8405C179.683 22.8239 179.68 22.8085 179.674 22.7942C179.668 22.7798 179.659 22.767 179.649 22.7564C179.638 22.7457 179.626 22.7372 179.611 22.7313C179.597 22.7251 179.582 22.7221 179.566 22.7221C179.549 22.7221 179.533 22.7251 179.519 22.7313C179.505 22.7372 179.492 22.7457 179.481 22.7564C179.47 22.767 179.462 22.7798 179.456 22.7942C179.45 22.8085 179.447 22.8239 179.447 22.8405C179.447 22.857 179.45 22.8724 179.456 22.8867C179.462 22.9014 179.47 22.914 179.481 22.9246C179.492 22.9353 179.505 22.9437 179.519 22.95C179.533 22.9562 179.549 22.9591 179.566 22.9591ZM179.566 22.688C179.587 22.688 179.607 22.692 179.626 22.7001C179.645 22.7078 179.661 22.7189 179.675 22.7328C179.689 22.7464 179.7 22.7626 179.708 22.7813C179.716 22.7997 179.72 22.8195 179.72 22.8405C179.72 22.8614 179.716 22.8813 179.708 22.8996C179.7 22.918 179.689 22.9342 179.675 22.9478C179.661 22.9617 179.645 22.9728 179.626 22.9808C179.607 22.9889 179.587 22.993 179.566 22.993C179.544 22.993 179.524 22.9889 179.505 22.9808C179.485 22.9728 179.469 22.9617 179.455 22.9478C179.441 22.9342 179.43 22.918 179.422 22.8996C179.414 22.8813 179.41 22.8614 179.41 22.8405C179.41 22.8195 179.414 22.7997 179.422 22.7813C179.43 22.7626 179.441 22.7464 179.455 22.7328C179.469 22.7189 179.485 22.7078 179.505 22.7001C179.524 22.692 179.544 22.688 179.566 22.688Z" fill="#231F20"/>
<path d="M177.141 21.3373C177.208 21.3373 177.304 21.3502 177.377 21.3792L177.275 21.6937C177.205 21.6647 177.135 21.6552 177.067 21.6552C176.85 21.6552 176.741 21.7963 176.741 22.0498V22.9103H176.409V21.3759H176.738V21.5622C176.825 21.4274 176.949 21.3373 177.141 21.3373ZM175.913 21.6809H175.37V22.3742C175.37 22.5282 175.424 22.6311 175.59 22.6311C175.677 22.6311 175.785 22.6021 175.884 22.5444L175.98 22.8299C175.874 22.9037 175.708 22.9489 175.565 22.9489C175.172 22.9489 175.034 22.7369 175.034 22.3805V21.6809H174.724V21.3759H175.034V20.9104H175.37V21.3759H175.913V21.6809ZM171.66 22.0083C171.696 21.7867 171.83 21.6357 172.066 21.6357C172.28 21.6357 172.418 21.7705 172.453 22.0083H171.66ZM172.798 22.1431C172.795 21.6647 172.501 21.3373 172.072 21.3373C171.625 21.3373 171.312 21.6647 171.312 22.1431C171.312 22.6307 171.638 22.9486 172.095 22.9486C172.325 22.9486 172.536 22.8909 172.721 22.7336L172.558 22.4863C172.43 22.5892 172.267 22.6469 172.114 22.6469C171.9 22.6469 171.705 22.5473 171.657 22.2714H172.791C172.795 22.2295 172.798 22.1879 172.798 22.1431ZM174.258 21.7676C174.165 21.7096 173.977 21.6357 173.782 21.6357C173.6 21.6357 173.491 21.7033 173.491 21.8158C173.491 21.9182 173.606 21.9473 173.75 21.9664L173.906 21.9888C174.239 22.0373 174.44 22.1784 174.44 22.4481C174.44 22.7402 174.184 22.9489 173.744 22.9489C173.494 22.9489 173.264 22.8846 173.082 22.7497L173.239 22.4896C173.351 22.5763 173.517 22.6502 173.747 22.6502C173.974 22.6502 174.095 22.583 174.095 22.4639C174.095 22.3776 174.009 22.3291 173.827 22.3037L173.67 22.2813C173.328 22.2328 173.143 22.0788 173.143 21.8286C173.143 21.5236 173.392 21.3373 173.779 21.3373C174.021 21.3373 174.242 21.3921 174.401 21.4979L174.258 21.7676ZM178.355 21.6545C178.287 21.6545 178.224 21.6666 178.165 21.6905C178.106 21.7147 178.055 21.7485 178.013 21.7919C177.97 21.8352 177.936 21.8874 177.912 21.948C177.887 22.0086 177.875 22.0755 177.875 22.1482C177.875 22.2214 177.887 22.2879 177.912 22.3485C177.936 22.4091 177.97 22.4613 178.013 22.5047C178.055 22.5481 178.106 22.5819 178.165 22.6061C178.224 22.6303 178.287 22.6421 178.355 22.6421C178.424 22.6421 178.487 22.6303 178.546 22.6061C178.605 22.5819 178.656 22.5481 178.699 22.5047C178.742 22.4613 178.776 22.4091 178.801 22.3485C178.825 22.2879 178.837 22.2214 178.837 22.1482C178.837 22.0755 178.825 22.0086 178.801 21.948C178.776 21.8874 178.742 21.8352 178.699 21.7919C178.656 21.7485 178.605 21.7147 178.546 21.6905C178.487 21.6666 178.424 21.6545 178.355 21.6545ZM178.355 21.3373C178.474 21.3373 178.583 21.3579 178.684 21.3995C178.785 21.4406 178.873 21.4975 178.946 21.5699C179.02 21.6423 179.078 21.7279 179.119 21.8264C179.161 21.9252 179.182 22.0325 179.182 22.1482C179.182 22.264 179.161 22.3713 179.119 22.4701C179.078 22.5686 179.02 22.6546 178.946 22.727C178.873 22.7994 178.785 22.856 178.684 22.8974C178.583 22.9386 178.474 22.9592 178.355 22.9592C178.237 22.9592 178.127 22.9386 178.026 22.8974C177.925 22.856 177.839 22.7994 177.765 22.727C177.692 22.6546 177.635 22.5686 177.593 22.4701C177.551 22.3713 177.531 22.264 177.531 22.1482C177.531 22.0325 177.551 21.9252 177.593 21.8264C177.635 21.7279 177.692 21.6423 177.765 21.5699C177.839 21.4975 177.925 21.4406 178.026 21.3995C178.127 21.3579 178.237 21.3373 178.355 21.3373ZM169.719 22.1431C169.719 21.8734 169.895 21.6519 170.183 21.6519C170.457 21.6519 170.643 21.8639 170.643 22.1431C170.643 22.4224 170.457 22.634 170.183 22.634C169.895 22.634 169.719 22.4128 169.719 22.1431ZM170.956 22.1431V21.3759H170.624V21.5622C170.518 21.424 170.358 21.3373 170.141 21.3373C169.713 21.3373 169.378 21.6742 169.378 22.1431C169.378 22.6116 169.713 22.9489 170.141 22.9489C170.358 22.9489 170.518 22.8622 170.624 22.724V22.9103H170.956V22.1431ZM169.084 22.9103V21.9473C169.084 21.5846 168.854 21.3407 168.483 21.3373C168.288 21.334 168.087 21.395 167.946 21.6103C167.841 21.4402 167.675 21.3373 167.441 21.3373C167.279 21.3373 167.119 21.3855 166.994 21.5652V21.3759H166.662V22.9103H166.997V22.0597C166.997 21.7933 167.144 21.6519 167.371 21.6519C167.592 21.6519 167.704 21.7963 167.704 22.0564V22.9103H168.039V22.0597C168.039 21.7933 168.193 21.6519 168.413 21.6519C168.64 21.6519 168.748 21.7963 168.748 22.0564V22.9103H169.084Z" fill="#9A9C9E"/>
<path d="M182.232 14.2269C182.232 17.4188 179.657 20.0063 176.481 20.0063C175.139 20.0063 173.904 19.5444 172.926 18.7706C174.264 17.7124 175.123 16.0703 175.123 14.2269C175.123 12.3835 174.264 10.7414 172.926 9.68319C173.904 8.90938 175.139 8.44751 176.481 8.44751C179.657 8.44751 182.232 11.035 182.232 14.2269Z" fill="#0099DF"/>
<path d="M170.734 14.2269C170.734 12.3835 171.593 10.7414 172.931 9.68319C171.952 8.90938 170.718 8.44751 169.376 8.44751C166.2 8.44751 163.625 11.035 163.625 14.2269C163.625 17.4188 166.2 20.0063 169.376 20.0063C170.718 20.0063 171.952 19.5444 172.931 18.7706C171.593 17.7124 170.734 16.0703 170.734 14.2269Z" fill="#EB001B"/>
</g>
<rect x="151" y="0.5" width="44" height="29" rx="4.5" stroke="#E2E4EB"/>
<path fill-rule="evenodd" clip-rule="evenodd" d="M36.0975 45H29.7695C30.1097 47.1093 32.151 49.0825 34.3964 49.0825H39.4315C39.4996 48.8784 39.4996 48.6062 39.4996 48.4021C39.4996 46.4969 38.0027 45 36.0975 45Z" fill="url(#paint0_linear_755_10428)"/>
<path fill-rule="evenodd" clip-rule="evenodd" d="M30.3145 49.4227V54.5259H33.3764V51.8042H36.0981C37.595 51.8042 38.8878 50.7836 39.296 49.4227H30.3145Z" fill="#4DB45F"/>
<path fill-rule="evenodd" clip-rule="evenodd" d="M19.4277 45V54.5259H22.1494C22.1494 54.5259 22.8299 54.5259 23.1701 53.8455C25.0072 50.1712 25.5515 49.0825 25.5515 49.0825H25.8918V54.5259H28.9537V45H26.232C26.232 45 25.5515 45.068 25.2113 45.6804C23.6464 48.8104 22.8299 50.4434 22.8299 50.4434H22.4896V45H19.4277Z" fill="#4DB45F"/>
<path fill-rule="evenodd" clip-rule="evenodd" d="M6.5 54.5259V45H9.5619C9.5619 45 10.4465 45 10.9228 46.3608C12.1475 49.9671 12.2836 50.4434 12.2836 50.4434C12.2836 50.4434 12.5558 49.5588 13.6444 46.3608C14.1207 45 15.0053 45 15.0053 45H18.0672V54.5259H15.0053V49.4228H14.6651L12.964 54.5259H11.6032L9.90212 49.4228H9.5619V54.5259H6.5Z" fill="#4DB45F"/>
<rect x="1" y="35.5" width="44" height="29" rx="4.5" stroke="#E2E4EB"/>
<g clip-path="url(#clip4_755_10428)">
<mask id="mask0_755_10428" style="mask-type:alpha" maskUnits="userSpaceOnUse" x="65" y="43" width="15" height="15">
<path fill-rule="evenodd" clip-rule="evenodd" d="M78.247 50.68C78.2493 50.7453 78.25 50.8098 78.25 50.875C78.25 53.9815 75.7315 56.5 72.625 56.5C69.5185 56.5 67 53.9815 67 50.875C67 47.7685 69.5185 45.25 72.625 45.25C73.768 45.25 74.8307 45.5905 75.718 46.1763L76.9428 45.2065C75.745 44.293 74.248 43.75 72.625 43.75C68.6897 43.75 65.5 46.9397 65.5 50.875C65.5 54.8103 68.6897 58 72.625 58C76.5603 58 79.75 54.8103 79.75 50.875C79.75 50.4348 79.7103 50.0035 79.6338 49.585L78.247 50.68Z" fill="#C4C4C4"/>
</mask>
<g mask="url(#mask0_755_10428)">
<path d="M78.2455 50.6523C78.2485 50.7265 78.25 50.8007 78.25 50.875C78.25 53.9815 75.7315 56.5 72.625 56.5C69.5185 56.5 67 53.9815 67 50.875C67 47.7685 69.5185 45.25 72.625 45.25C73.768 45.25 74.8307 45.5905 75.718 46.1763L76.9428 45.2065C75.745 44.293 74.248 43.75 72.625 43.75C68.6897 43.75 65.5 46.9397 65.5 50.875C65.5 54.8103 68.6897 58 72.625 58C76.5603 58 79.75 54.8103 79.75 50.875C79.75 50.4212 79.7072 49.9773 79.6262 49.5468L78.2455 50.6523Z" fill="#24A236"/>
<path d="M71.8029 49.7794C75.2839 49.7794 78.1058 46.9575 78.1058 43.4765C78.1058 39.9955 75.2839 37.1736 71.8029 37.1736C68.3219 37.1736 65.5 39.9955 65.5 43.4765C65.5 46.9575 68.3219 49.7794 71.8029 49.7794Z" fill="#008ACB"/>
<g filter="url(#filter0_f_755_10428)">
<path d="M70.9808 64.0294C74.0077 64.0294 76.4615 61.5756 76.4615 58.5486C76.4615 55.5217 74.0077 53.0679 70.9808 53.0679C67.9538 53.0679 65.5 55.5217 65.5 58.5486C65.5 61.5756 67.9538 64.0294 70.9808 64.0294Z" fill="#77F628"/>
</g>
<g filter="url(#filter1_f_755_10428)">
<path d="M66.0491 53.6158C69.0761 53.6158 71.5299 51.162 71.5299 48.1351C71.5299 45.1081 69.0761 42.6543 66.0491 42.6543C63.0222 42.6543 60.5684 45.1081 60.5684 48.1351C60.5684 51.162 63.0222 53.6158 66.0491 53.6158Z" fill="#19E7E8"/>
</g>
<g filter="url(#filter2_f_755_10428)">
<path d="M65.5018 58.0007C67.9234 58.0007 69.8864 56.0376 69.8864 53.6161C69.8864 51.1945 67.9234 49.2314 65.5018 49.2314C63.0802 49.2314 61.1172 51.1945 61.1172 53.6161C61.1172 56.0376 63.0802 58.0007 65.5018 58.0007Z" fill="#DEFA1B"/>
</g>
</g>
<path fill-rule="evenodd" clip-rule="evenodd" d="M79.0368 47.7632L72.625 52.75V50.875L78.2492 46.5002C78.5537 46.891 78.8178 47.314 79.0368 47.7632Z" fill="#24A236"/>
<path fill-rule="evenodd" clip-rule="evenodd" d="M70 51.1034L72.625 52.7496V50.8746L70 49.2336V51.1034Z" fill="#24A236"/>
</g>
<rect x="51" y="35.5" width="44" height="29" rx="4.5" stroke="#E2E4EB"/>
<g clip-path="url(#clip5_755_10428)">
<path fill-rule="evenodd" clip-rule="evenodd" d="M125.8 57.58C129.776 57.58 133 54.3165 133 50.29C133 46.2635 129.776 43 125.8 43C121.823 43 118.6 46.2635 118.6 50.29C118.6 54.3165 121.823 57.58 125.8 57.58ZM125.8 53.125C127.346 53.125 128.6 51.8557 128.6 50.29C128.6 48.7243 127.346 47.455 125.8 47.455C124.253 47.455 123 48.7243 123 50.29C123 51.8557 124.253 53.125 125.8 53.125Z" fill="#8A42F9"/>
<path d="M118.6 45.4302H113L115.986 55.1502H118.6V45.4302Z" fill="#8A42F9"/>
</g>
<rect x="101" y="35.5" width="44" height="29" rx="4.5" stroke="#E2E4EB"/>
<path d="M161.647 46.4316C161.229 46.1441 160.684 46 160.01 46H157.404C157.198 46 157.084 46.1032 157.062 46.3094L156.003 52.9552C155.992 53.0205 156.009 53.0802 156.052 53.1344C156.095 53.1888 156.15 53.2158 156.215 53.2158H157.453C157.67 53.2158 157.789 53.1129 157.811 52.9064L158.105 51.1147C158.115 51.0279 158.153 50.9573 158.219 50.9029C158.284 50.8486 158.365 50.8132 158.463 50.7969C158.561 50.7808 158.653 50.7726 158.74 50.7726C158.827 50.7726 158.93 50.7781 159.049 50.789C159.169 50.7998 159.245 50.8051 159.277 50.8051C160.211 50.8051 160.944 50.542 161.476 50.0151C162.008 49.4885 162.275 48.7583 162.275 47.8242C162.275 47.1835 162.065 46.7193 161.647 46.4314V46.4316ZM160.304 48.4271C160.249 48.8072 160.108 49.0569 159.88 49.1764C159.652 49.296 159.326 49.3555 158.903 49.3555L158.365 49.3718L158.642 47.6288C158.664 47.5095 158.734 47.4497 158.854 47.4497H159.164C159.598 47.4497 159.913 47.5123 160.108 47.637C160.304 47.762 160.369 48.0254 160.304 48.4271Z" fill="#003087"/>
<path d="M189.15 46H187.945C187.825 46 187.755 46.0597 187.733 46.1793L186.675 52.9555L186.658 52.9881C186.658 53.0426 186.68 53.094 186.723 53.1429C186.767 53.1916 186.821 53.2161 186.886 53.2161H187.962C188.167 53.2161 188.282 53.1131 188.304 52.9067L189.362 46.2445V46.2283C189.362 46.0762 189.291 46.0002 189.15 46.0002V46Z" fill="#009CDE"/>
<path d="M174.59 48.6227C174.59 48.5686 174.568 48.5169 174.525 48.4682C174.481 48.4193 174.433 48.3947 174.378 48.3947H173.124C173.004 48.3947 172.907 48.4493 172.831 48.5576L171.104 51.0987L170.388 48.6554C170.333 48.4818 170.214 48.3947 170.029 48.3947H168.807C168.753 48.3947 168.704 48.4192 168.661 48.4682C168.617 48.5169 168.596 48.5687 168.596 48.6227C168.596 48.6446 168.702 48.9648 168.913 49.5838C169.125 50.203 169.353 50.8708 169.597 51.5876C169.842 52.3042 169.969 52.6845 169.98 52.7276C169.09 53.944 168.645 54.5955 168.645 54.6823C168.645 54.8235 168.715 54.8941 168.856 54.8941H170.111C170.23 54.8941 170.328 54.8399 170.404 54.7312L174.558 48.7367C174.579 48.7152 174.59 48.6774 174.59 48.6227V48.6227Z" fill="#003087"/>
<path d="M186.269 48.3948H185.031C184.879 48.3948 184.787 48.574 184.754 48.9324C184.471 48.4982 183.956 48.2808 183.207 48.2808C182.425 48.2808 181.759 48.574 181.211 49.1604C180.663 49.7468 180.389 50.4366 180.389 51.2292C180.389 51.8701 180.576 52.3804 180.951 52.7604C181.325 53.1407 181.827 53.3305 182.457 53.3305C182.772 53.3305 183.093 53.2652 183.418 53.135C183.744 53.0047 183.999 52.831 184.184 52.6138C184.184 52.6247 184.173 52.6734 184.152 52.7602C184.13 52.8472 184.119 52.9126 184.119 52.9557C184.119 53.1296 184.189 53.2163 184.331 53.2163H185.455C185.661 53.2163 185.78 53.1133 185.813 52.9068L186.481 48.6554C186.491 48.5901 186.475 48.5306 186.432 48.4762C186.388 48.422 186.334 48.3948 186.269 48.3948ZM184.143 51.6039C183.866 51.8754 183.532 52.011 183.141 52.011C182.826 52.011 182.571 51.9243 182.376 51.7504C182.18 51.5771 182.083 51.3381 182.083 51.0337C182.083 50.6322 182.218 50.2926 182.49 50.0157C182.761 49.7388 183.098 49.6004 183.5 49.6004C183.804 49.6004 184.056 49.6899 184.257 49.869C184.458 50.0483 184.559 50.2953 184.559 50.6103C184.559 51.0012 184.42 51.3325 184.143 51.6039Z" fill="#009CDE"/>
<path d="M167.765 48.3948H166.527C166.375 48.3948 166.283 48.574 166.25 48.9324C165.957 48.4982 165.441 48.2808 164.703 48.2808C163.921 48.2808 163.256 48.574 162.707 49.1604C162.159 49.7468 161.885 50.4366 161.885 51.2292C161.885 51.8701 162.072 52.3804 162.447 52.7604C162.821 53.1407 163.324 53.3305 163.953 53.3305C164.257 53.3305 164.572 53.2652 164.898 53.135C165.224 53.0047 165.485 52.831 165.68 52.6138C165.637 52.744 165.615 52.858 165.615 52.9557C165.615 53.1296 165.685 53.2163 165.827 53.2163H166.951C167.157 53.2163 167.276 53.1133 167.309 52.9068L167.977 48.6554C167.987 48.5901 167.971 48.5306 167.928 48.4762C167.884 48.422 167.83 48.3948 167.765 48.3948ZM165.639 51.6119C165.362 51.8783 165.023 52.011 164.621 52.011C164.306 52.011 164.054 51.9243 163.864 51.7504C163.674 51.5771 163.579 51.3381 163.579 51.0337C163.579 50.6322 163.715 50.2926 163.986 50.0157C164.257 49.7388 164.594 49.6003 164.996 49.6003C165.3 49.6003 165.552 49.6899 165.754 49.869C165.954 50.0483 166.055 50.2953 166.055 50.6103C166.055 51.0121 165.916 51.3462 165.639 51.6119Z" fill="#003087"/>
<path d="M180.151 46.4316C179.733 46.1441 179.188 46 178.514 46H175.924C175.707 46 175.588 46.1032 175.566 46.3094L174.507 52.9552C174.496 53.0205 174.513 53.0802 174.556 53.1344C174.599 53.1888 174.654 53.2158 174.719 53.2158H176.055C176.185 53.2158 176.272 53.1453 176.315 53.0041L176.608 51.1147C176.619 51.0279 176.657 50.9573 176.723 50.9029C176.788 50.8486 176.869 50.8132 176.967 50.7969C177.065 50.7808 177.157 50.7726 177.244 50.7726C177.331 50.7726 177.434 50.7781 177.553 50.789C177.673 50.7998 177.749 50.8051 177.781 50.8051C178.715 50.8051 179.448 50.542 179.98 50.0151C180.512 49.4885 180.778 48.7583 180.778 47.8242C180.778 47.1835 180.569 46.7193 180.151 46.4314V46.4316ZM178.482 49.1111C178.243 49.274 177.884 49.3554 177.407 49.3554L176.885 49.3717L177.162 47.6287C177.184 47.5094 177.254 47.4496 177.374 47.4496H177.667C177.906 47.4496 178.096 47.4605 178.237 47.4822C178.378 47.504 178.514 47.5717 178.645 47.6857C178.775 47.7998 178.84 47.9654 178.84 48.1825C178.84 48.6388 178.721 48.9481 178.482 49.1111Z" fill="#009CDE"/>
<rect x="151" y="35.5" width="44" height="29" rx="4.5" stroke="#E2E4EB"/>
<defs>
<filter id="filter0_f_755_10428" x="57.5" y="45.0679" width="26.9609" height="26.9615" filterUnits="userSpaceOnUse" color-interpolation-filters="sRGB">
<feFlood flood-opacity="0" result="BackgroundImageFix"/>
<feBlend mode="normal" in="SourceGraphic" in2="BackgroundImageFix" result="shape"/>
<feGaussianBlur stdDeviation="4" result="effect1_foregroundBlur_755_10428"/>
</filter>
<filter id="filter1_f_755_10428" x="52.5684" y="34.6543" width="26.9609" height="26.9615" filterUnits="userSpaceOnUse" color-interpolation-filters="sRGB">
<feFlood flood-opacity="0" result="BackgroundImageFix"/>
<feBlend mode="normal" in="SourceGraphic" in2="BackgroundImageFix" result="shape"/>
<feGaussianBlur stdDeviation="4" result="effect1_foregroundBlur_755_10428"/>
</filter>
<filter id="filter2_f_755_10428" x="55.1172" y="43.2314" width="20.7695" height="20.7692" filterUnits="userSpaceOnUse" color-interpolation-filters="sRGB">
<feFlood flood-opacity="0" result="BackgroundImageFix"/>
<feBlend mode="normal" in="SourceGraphic" in2="BackgroundImageFix" result="shape"/>
<feGaussianBlur stdDeviation="3" result="effect1_foregroundBlur_755_10428"/>
</filter>
<linearGradient id="paint0_linear_755_10428" x1="29.752" y1="47.0413" x2="39.4996" y2="47.0413" gradientUnits="userSpaceOnUse">
<stop stop-color="#00B4E6"/>
<stop offset="1" stop-color="#088CCB"/>
</linearGradient>
<clipPath id="clip0_755_10428">
<rect width="15" height="15" fill="white" transform="translate(15.5 8)"/>
</clipPath>
<clipPath id="clip1_755_10428">
<rect width="35" height="15" fill="white" transform="translate(55.5 8)"/>
</clipPath>
<clipPath id="clip2_755_10428">
<rect width="19" height="15" fill="white" transform="translate(113.5 8)"/>
</clipPath>
<clipPath id="clip3_755_10428">
<rect width="19" height="15" fill="white" transform="translate(163.5 8)"/>
</clipPath>
<clipPath id="clip4_755_10428">
<rect width="15" height="15" fill="white" transform="translate(65.5 43)"/>
</clipPath>
<clipPath id="clip5_755_10428">
<rect width="20" height="15" fill="white" transform="translate(113 43)"/>
</clipPath>
</defs>
</svg>
